<svg width="28" height="33" viewBox="0 0 28 33" fill="none" xmlns="http://www.w3.org/2000/svg">
<path d="M13.9378 33C15.2617 33 16.5013 32.7503 17.6566 32.2508C18.812 31.7514 19.8259 31.0654 20.6985 30.1928C21.571 29.3203 22.254 28.3063 22.7475 27.151C23.2409 25.9956 23.4876 24.762 23.4876 23.4502C23.4876 22.1264 23.2409 20.8868 22.7475 19.7314C22.254 18.5761 21.571 17.5621 20.6985 16.6895C19.8259 15.817 18.812 15.131 17.6566 14.6316C16.5013 14.1321 15.2617 13.8824 13.9378 13.8824C12.626 13.8824 11.3924 14.1321 10.2371 14.6316C9.08171 15.131 8.06475 15.817 7.18618 16.6895C6.30764 17.5621 5.62164 18.5761 5.1282 19.7314C4.63478 20.8868 4.38806 22.1264 4.38806 23.4502C4.38806 24.762 4.63478 25.9956 5.1282 27.151C5.62164 28.3063 6.30764 29.3203 7.18618 30.1928C8.06475 31.0654 9.08171 31.7514 10.2371 32.2508C11.3924 32.7503 12.626 33 13.9378 33ZM6.13915 19.1176L7.83607 17.2943L2.67307 7.38347L4.83938 4.09793L10.9411 15.8682L13.6129 15.4891L6.40993 2.43709H21.4838L14.2808 15.4891L16.9526 15.8682L23.0363 4.09793L25.2026 7.38347L20.0396 17.2943L21.7365 19.1176L27.6758 8.28613C27.8202 8.02134 27.8894 7.74454 27.8834 7.45572C27.8774 7.16687 27.7901 6.89608 27.6216 6.64334L23.7043 0.686007C23.3913 0.228669 22.934 0 22.3322 0H5.56147C4.94769 0 4.48434 0.228669 4.17141 0.686007L0.254019 6.64334C0.0975676 6.89608 0.0133245 7.16687 0.00128899 7.45572C-0.010744 7.74454 0.0614711 8.02134 0.217935 8.28613L6.13915 19.1176ZM13.9378 30.5629C12.638 30.5629 11.4496 30.244 10.3725 29.6061C9.29533 28.9683 8.43483 28.1108 7.79096 27.0336C7.14709 25.9565 6.82515 24.762 6.82515 23.4502C6.82515 22.1384 7.14407 20.9439 7.7819 19.8668C8.41976 18.7897 9.27727 17.9292 10.3544 17.2853C11.4315 16.6414 12.626 16.3195 13.9378 16.3195C15.2496 16.3195 16.4441 16.6384 17.5212 17.2763C18.5984 17.9141 19.4589 18.7716 20.1027 19.8488C20.7466 20.9259 21.0686 22.1264 21.0686 23.4502C21.0686 24.75 20.7466 25.9385 20.1027 27.0156C19.4589 28.0927 18.5984 28.9532 17.5212 29.5971C16.4441 30.241 15.2496 30.5629 13.9378 30.5629ZM11.4827 27.9272L13.9559 26.122L16.4291 27.9272C16.7179 28.1439 16.9767 28.1679 17.2053 27.9995C17.434 27.831 17.5002 27.5842 17.4039 27.2593L16.393 24.3167L18.9023 22.5295C19.167 22.337 19.2663 22.0993 19.2001 21.8165C19.1339 21.5337 18.9203 21.3922 18.5593 21.3922L15.4723 21.4283L14.5336 18.4858C14.4252 18.1488 14.2297 17.9803 13.9469 17.9803C13.664 17.9803 13.4685 18.1488 13.3601 18.4858L12.4214 21.4283L9.35249 21.3922C8.9794 21.3922 8.75976 21.5337 8.69359 21.8165C8.62738 22.0993 8.72666 22.337 8.99143 22.5295L11.5188 24.3167L10.5079 27.2593C10.3995 27.5842 10.4597 27.831 10.6884 27.9995C10.917 28.1679 11.1818 28.1439 11.4827 27.9272ZM8.66648 9.2068H19.2453V6.78775H8.66648V9.2068Z" fill="#FF5400"/>
</svg>
