<svg width="80" height="48" viewBox="0 0 80 48" fill="none" xmlns="http://www.w3.org/2000/svg">
<g filter="url(#filter0_d_21_255)">
<path d="M40.1997 16.6476C39.3108 16.6476 38.4578 17.0007 37.8293 17.6293C37.2009 18.2578 36.8477 19.1108 36.8477 19.9996C36.8477 20.8884 37.2008 21.7416 37.8293 22.37C38.4579 22.9984 39.3109 23.3517 40.1997 23.3517C41.0885 23.3517 41.9416 22.9985 42.5701 22.37C43.1985 21.7415 43.5517 20.8884 43.5517 19.9996C43.5517 19.1108 43.1986 18.2577 42.5701 17.6293C41.9415 17.0009 41.0885 16.6476 40.1997 16.6476ZM40.1997 21.1171C39.7478 21.1171 39.3402 20.8447 39.1676 20.4272C38.9945 20.0097 39.0898 19.5293 39.4096 19.2096C39.7293 18.8898 40.2097 18.7945 40.6272 18.9676C41.0447 19.1402 41.3171 19.5478 41.3171 19.9997C41.3171 20.296 41.1993 20.5803 40.9898 20.7898C40.7803 20.9993 40.496 21.1171 40.1997 21.1171Z" fill="#30D158"/>
<path d="M69.5757 19.2066C69.2579 19.5268 69.1636 20.0067 69.3372 20.4227C69.5108 20.8392 69.9179 21.1106 70.3688 21.1106C70.8197 21.1106 71.2268 20.8392 71.4004 20.4227C71.574 20.0067 71.4797 19.5268 71.1619 19.2066C70.713 18.7956 70.0246 18.7956 69.5756 19.2066H69.5757Z" fill="#30D158"/>
<path d="M70.4568 14.4128H70.4513L58.5648 13.5334C58.3693 13.3024 58.2096 13.0436 58.0919 12.7647C57.865 12.203 57.8096 11.587 57.9323 10.9939C58.044 10.4532 57.7447 9.91195 57.227 9.7199C56.6593 9.5104 56.1665 9.13777 55.8103 8.64843C55.4546 8.15859 55.2521 7.57496 55.2281 6.96982C55.2052 6.41912 54.7837 5.96767 54.236 5.90633C53.6344 5.83948 53.0662 5.59655 52.6028 5.20747C52.1394 4.81888 51.8012 4.30109 51.6311 3.72041C51.476 3.19116 50.9582 2.85445 50.411 2.92728C49.8109 3.01008 49.1998 2.91281 48.6551 2.64794C48.1104 2.38306 47.6565 1.96305 47.3507 1.44028C47.0713 0.964399 46.4867 0.763374 45.9739 0.967399C45.4611 1.17591 44.9005 1.23776 44.3542 1.14697C43.808 1.05569 43.2977 0.814747 42.8802 0.451111C42.5305 0.157798 42.0376 0.106425 41.6351 0.32142C41.1502 0.590291 40.6 0.719484 40.0459 0.696038C39.4917 0.672594 38.9549 0.496508 38.4946 0.187731C38.0357 -0.118045 37.4231 -0.0437242 37.0509 0.362819C36.6429 0.810265 36.1121 1.12752 35.5251 1.27417C34.9379 1.42082 34.3204 1.3909 33.7503 1.18738C33.231 1.00281 32.6544 1.22429 32.3925 1.70914C32.1066 2.24189 31.6692 2.67736 31.1354 2.9607C30.6002 3.24253 29.9946 3.36175 29.3926 3.30389C28.8444 3.25002 28.3391 3.60319 28.2014 4.13643C28.0517 4.72254 27.7315 5.2518 27.2821 5.65682C26.8321 6.06187 26.2729 6.32475 25.6738 6.41254C25.1276 6.49235 24.7221 6.95875 24.7186 7.51096C24.7146 8.11554 24.532 8.70515 24.1943 9.20642C23.8566 9.70775 23.3777 10.0983 22.819 10.3288C22.3097 10.5393 22.0298 11.0895 22.1595 11.6247C22.3027 12.2128 22.2678 12.8298 22.0592 13.398C22.0423 13.4439 22.0099 13.4798 21.9909 13.5242L10.0306 14.4126C8.03477 14.3967 6.1816 15.4472 5.17009 17.1676C4.15847 18.8886 4.14151 21.018 5.12619 22.7545C6.11037 24.4909 7.94656 25.5704 9.94237 25.5863L21.8548 26.4693C22.424 27.1791 22.6459 28.1069 22.4594 28.9978C22.3486 29.5376 22.6484 30.0778 23.1652 30.2693C23.7319 30.4803 24.2242 30.8535 24.5794 31.3428C24.935 31.8317 25.1385 32.4148 25.1645 33.0189C25.1884 33.5681 25.6079 34.0185 26.1542 34.0804C26.7557 34.1482 27.3234 34.3916 27.7873 34.7807C28.2507 35.1698 28.5889 35.6866 28.76 36.2673C28.9157 36.7955 29.4324 37.1317 29.9776 37.0594C30.5782 36.9781 31.1893 37.0759 31.7345 37.3402C32.2793 37.6051 32.7337 38.0256 33.0405 38.5479C33.3204 39.0233 33.905 39.2233 34.4172 39.0193C34.9315 38.8118 35.4932 38.7504 36.0404 38.8427C36.5871 38.9345 37.0979 39.1764 37.516 39.5411C37.8647 39.8354 38.3575 39.8872 38.7606 39.6733C39.2459 39.4069 39.7946 39.2797 40.3479 39.3041C40.9006 39.3286 41.4363 39.5047 41.8957 39.8129C42.0788 39.9351 42.2938 40 42.5138 39.9995C42.827 39.9995 43.1263 39.8683 43.3383 39.6373C43.7459 39.1889 44.2766 38.8716 44.8642 38.7245C45.4518 38.5778 46.0699 38.6088 46.64 38.8128C47.1593 38.9978 47.7354 38.7764 47.9978 38.292C48.2846 37.7593 48.7226 37.3233 49.2568 37.0395C49.7906 36.7551 50.3972 36.6354 50.9993 36.6953C51.5485 36.7501 52.0553 36.3955 52.1925 35.8607C52.3417 35.2741 52.6609 34.7449 53.1108 34.3403C53.5603 33.9353 54.12 33.6724 54.7191 33.5856C55.2643 33.5053 55.6698 33.0389 55.6733 32.4872C55.6763 31.8826 55.8579 31.292 56.1961 30.7907C56.5343 30.2894 57.0132 29.8988 57.5728 29.6694C58.0826 29.4599 58.3635 28.9092 58.2343 28.3735C58.0901 27.7849 58.1241 27.1673 58.3301 26.5977C58.3445 26.5588 58.367 26.5159 58.3839 26.476L70.3688 25.5866C72.3646 25.6025 74.2178 24.552 75.2293 22.8316C76.2409 21.1106 76.2579 18.9812 75.2732 17.2447C74.289 15.5083 72.4528 14.4288 70.457 14.4129L70.4568 14.4128ZM6.67863 19.9997C6.68611 19.0983 7.05275 18.2378 7.69773 17.6082C8.34271 16.9787 9.21212 16.633 10.1135 16.6475L20.5555 15.8743C20.572 16.001 20.6094 16.1242 20.6673 16.2385C20.9476 16.7747 21.0633 17.3813 21 17.9829C20.9366 18.5844 20.6972 19.1536 20.3116 19.6194C19.9614 20.0439 19.9724 20.6605 20.3375 21.072C20.7436 21.5215 21.0065 22.0816 21.0928 22.6813C21.1217 22.9038 21.1262 23.1282 21.1052 23.3517C21.1052 23.3941 21.0998 23.4355 21.0953 23.4769H21.0948C21.0683 23.6909 21.0194 23.9014 20.9486 24.1049L20.9297 24.1528L10.0308 23.3517C9.14187 23.3517 8.28883 22.9986 7.66042 22.37C7.03201 21.7415 6.67873 20.8885 6.67873 19.9997L6.67863 19.9997ZM56.0063 26.6534C55.9215 27.1004 55.8946 27.5563 55.927 28.0103C54.6565 28.8059 53.7821 30.1018 53.5193 31.5779C52.0941 32.0433 50.9328 33.0899 50.3223 34.4587C48.8273 34.5639 47.447 35.2977 46.5232 36.4775C45.0468 36.2171 43.5288 36.5957 42.3476 37.519C41.6717 37.2177 40.94 37.0621 40.2002 37.0621C39.5772 37.0621 38.9591 37.1758 38.3765 37.3973C37.8518 37.0551 37.2686 36.8132 36.656 36.682C35.9297 36.5279 35.1796 36.5279 34.4537 36.682C33.4895 35.5372 32.0868 34.8528 30.5908 34.7969C29.9319 33.4511 28.7347 32.447 27.2947 32.0314C26.9804 30.5674 26.0626 29.3034 24.7671 28.5521C24.817 27.0546 24.2319 25.6061 23.1559 24.5631C23.2098 24.3426 23.2487 24.1186 23.2731 23.8927C23.2946 23.754 23.337 23.6178 23.347 23.4781C23.4238 22.3618 23.1474 21.2499 22.5568 20.2991C22.925 19.6586 23.1534 18.9472 23.2273 18.2119C23.2682 17.8408 23.2682 17.4657 23.2273 17.0946C23.2183 17.0008 23.1839 16.9125 23.1694 16.8187C23.134 16.5468 23.0771 16.278 22.9993 16.0151C24.0368 14.9356 24.5711 13.4686 24.4713 11.9746C25.7383 11.1764 26.6113 9.88195 26.8756 8.40792C28.3002 7.94401 29.4615 6.898 30.0726 5.5297C31.5675 5.42545 32.9478 4.69217 33.8716 3.51192C35.3472 3.76981 36.8631 3.39121 38.0448 2.47038C39.3069 3.03205 40.7399 3.07196 42.0315 2.58212C42.5548 2.92131 43.1359 3.16176 43.746 3.29145C44.4703 3.44459 45.219 3.44459 45.9438 3.29145C46.9055 4.44324 48.3102 5.13364 49.8096 5.19098C50.4681 6.53731 51.6658 7.54141 53.1058 7.95541C53.4176 9.42191 54.3369 10.6875 55.6354 11.4373C55.613 12.0822 55.7092 12.7263 55.9193 13.3368L41.2364 12.2509C39.0875 11.956 36.9121 12.5666 35.2311 13.9374C33.5495 15.3086 32.5135 17.3159 32.3693 19.4803C32.2252 21.6452 32.9869 23.7721 34.4719 25.3534C35.9564 26.9353 38.0315 27.8286 40.2009 27.8211C40.5266 27.8201 40.8518 27.7972 41.1741 27.7518L56.0063 26.6534ZM70.2857 23.3518L57.6145 24.2916L40.9433 25.5307C39.4049 25.7496 37.8445 25.3176 36.6374 24.339C35.4308 23.3603 34.6855 21.9231 34.5817 20.3727C34.4779 18.8218 35.0247 17.2985 36.0906 16.1676C37.1561 15.0368 38.6451 14.4008 40.1989 14.4128C40.4698 14.4163 40.7397 14.4372 41.008 14.4751L57.9435 15.7302H57.9794L70.3673 16.6475C71.565 16.6625 72.6633 17.3149 73.2495 18.3594C73.8356 19.404 73.8196 20.6815 73.2081 21.7115C72.5965 22.7411 71.4821 23.3667 70.2844 23.3517L70.2857 23.3518Z" fill="#30D158"/>
<path d="M59.1949 18.8823H49.1386C48.5216 18.8823 48.0212 19.3827 48.0212 19.9997C48.0212 20.6167 48.5216 21.1171 49.1386 21.1171H59.1949C59.812 21.1171 60.3123 20.6167 60.3123 19.9997C60.3123 19.3827 59.812 18.8823 59.1949 18.8823Z" fill="#30D158"/>
<path d="M63.6645 17.7649C63.0474 17.7649 62.5471 18.2652 62.5471 18.8823V21.117C62.5471 21.734 63.0474 22.2344 63.6645 22.2344C64.2815 22.2344 64.7819 21.734 64.7819 21.117V18.8823C64.7819 18.586 64.6641 18.3016 64.4546 18.0921C64.2451 17.8826 63.9608 17.7649 63.6645 17.7649Z" fill="#30D158"/>
<path d="M9.2377 19.2065C8.91496 19.5258 8.81818 20.0092 8.99227 20.4282C9.16636 20.8472 9.57689 21.1195 10.0308 21.117C10.403 21.115 10.7496 20.9275 10.9556 20.6172C11.1612 20.3074 11.1991 19.9149 11.0564 19.5712C10.9137 19.2275 10.609 18.9776 10.2443 18.9042C9.87918 18.8309 9.50157 18.9441 9.23769 19.2065L9.2377 19.2065Z" fill="#30D158"/>
<path d="M16.7349 17.7649C16.1179 17.7649 15.6176 18.2652 15.6176 18.8823V21.117C15.6176 21.734 16.1179 22.2344 16.7349 22.2344C17.352 22.2344 17.8523 21.734 17.8523 21.117V18.8823C17.8523 18.586 17.7346 18.3016 17.5251 18.0921C17.3156 17.8826 17.0312 17.7649 16.7349 17.7649Z" fill="#30D158"/>
<path d="M29.0261 19.9996C29.0295 17.0371 30.2078 14.1968 32.3023 12.1022C34.3968 10.0075 37.2373 8.82937 40.1997 8.82593C40.8168 8.82593 41.3171 8.3256 41.3171 7.70856C41.3171 7.09151 40.8168 6.59119 40.1997 6.59119C35.4095 6.59119 30.9829 9.14671 28.5875 13.2954C26.1927 17.4441 26.1927 22.5551 28.5875 26.7038C30.9829 30.8525 35.4095 33.408 40.1997 33.408C40.8168 33.408 41.3171 32.9077 41.3171 32.2907C41.3171 31.6736 40.8168 31.1733 40.1997 31.1733C37.2373 31.1698 34.397 29.9916 32.3023 27.8971C30.2077 25.8025 29.0295 22.9621 29.0261 19.9996Z" fill="#30D158"/>
<path d="M44.6692 9.94334C44.9655 9.94134 45.2494 9.82512 45.4623 9.6191C45.7801 9.29885 45.8744 8.81899 45.7008 8.40297C45.5272 7.98645 45.1201 7.71509 44.6692 7.71509C44.2183 7.71509 43.8112 7.98645 43.6376 8.40297C43.464 8.81899 43.5583 9.29885 43.8761 9.6191C44.0891 9.82512 44.3729 9.94133 44.6692 9.94334Z" fill="#30D158"/>
</g>
<defs>
<filter id="filter0_d_21_255" x="0.399353" y="0" width="79.6006" height="47.9995" filterUnits="userSpaceOnUse" color-interpolation-filters="sRGB">
<feFlood flood-opacity="0" result="BackgroundImageFix"/>
<feColorMatrix in="SourceAlpha" type="matrix" values="0 0 0 0 0 0 0 0 0 0 0 0 0 0 0 0 0 0 127 0" result="hardAlpha"/>
<feOffset dy="4"/>
<feGaussianBlur stdDeviation="2"/>
<feComposite in2="hardAlpha" operator="out"/>
<feColorMatrix type="matrix" values="0 0 0 0 0 0 0 0 0 0 0 0 0 0 0 0 0 0 0.25 0"/>
<feBlend mode="normal" in2="BackgroundImageFix" result="effect1_dropShadow_21_255"/>
<feBlend mode="normal" in="SourceGraphic" in2="effect1_dropShadow_21_255" result="shape"/>
</filter>
</defs>
</svg>
