<svg width="72" height="40" viewBox="0 0 72 40" fill="none" xmlns="http://www.w3.org/2000/svg">
<g filter="url(#filter0_i_34_49)">
<path d="M36.1997 16.6477C35.3108 16.6477 34.4578 17.0008 33.8293 17.6294C33.2009 18.2579 32.8477 19.1109 32.8477 19.9997C32.8477 20.8885 33.2008 21.7417 33.8293 22.3701C34.4579 22.9985 35.3109 23.3518 36.1997 23.3518C37.0885 23.3518 37.9416 22.9986 38.5701 22.3701C39.1985 21.7416 39.5517 20.8885 39.5517 19.9997C39.5517 19.1109 39.1986 18.2578 38.5701 17.6294C37.9415 17.001 37.0885 16.6477 36.1997 16.6477ZM36.1997 21.1172C35.7478 21.1172 35.3402 20.8448 35.1676 20.4273C34.9945 20.0098 35.0898 19.5294 35.4096 19.2097C35.7293 18.8899 36.2097 18.7946 36.6272 18.9677C37.0447 19.1403 37.3171 19.5479 37.3171 19.9998C37.3171 20.2961 37.1993 20.5804 36.9898 20.7899C36.7803 20.9994 36.496 21.1172 36.1997 21.1172Z" fill="#30D158"/>
<path d="M65.5759 19.2067C65.2581 19.5269 65.1638 20.0068 65.3374 20.4228C65.511 20.8393 65.9181 21.1107 66.369 21.1107C66.8199 21.1107 67.227 20.8393 67.4006 20.4228C67.5742 20.0068 67.4799 19.5269 67.1621 19.2067C66.7132 18.7957 66.0248 18.7957 65.5758 19.2067H65.5759Z" fill="#30D158"/>
<path d="M66.4569 14.4128H66.4514L54.5649 13.5334C54.3694 13.3024 54.2097 13.0436 54.092 12.7647C53.8651 12.203 53.8097 11.587 53.9324 10.9939C54.0441 10.4532 53.7448 9.91195 53.2271 9.7199C52.6594 9.5104 52.1666 9.13777 51.8104 8.64843C51.4547 8.15859 51.2522 7.57496 51.2282 6.96982C51.2053 6.41912 50.7838 5.96767 50.2361 5.90633C49.6345 5.83948 49.0663 5.59655 48.6029 5.20747C48.1395 4.81888 47.8013 4.30109 47.6312 3.72041C47.4761 3.19116 46.9583 2.85445 46.4111 2.92728C45.811 3.01008 45.1999 2.91281 44.6552 2.64794C44.1105 2.38306 43.6566 1.96305 43.3508 1.44028C43.0714 0.964399 42.4868 0.763374 41.974 0.967399C41.4612 1.17591 40.9006 1.23776 40.3543 1.14697C39.8081 1.05569 39.2978 0.814747 38.8803 0.451111C38.5306 0.157798 38.0377 0.106425 37.6352 0.32142C37.1503 0.590291 36.6001 0.719484 36.046 0.696038C35.4918 0.672594 34.955 0.496508 34.4947 0.187731C34.0358 -0.118045 33.4232 -0.0437244 33.051 0.362819C32.643 0.810265 32.1122 1.12752 31.5252 1.27417C30.938 1.42082 30.3205 1.3909 29.7504 1.18738C29.2311 1.00281 28.6545 1.22429 28.3926 1.70914C28.1067 2.24189 27.6693 2.67736 27.1355 2.9607C26.6003 3.24253 25.9947 3.36175 25.3927 3.30389C24.8445 3.25002 24.3392 3.60319 24.2015 4.13643C24.0518 4.72254 23.7316 5.2518 23.2822 5.65682C22.8322 6.06187 22.273 6.32475 21.6739 6.41254C21.1277 6.49235 20.7222 6.95875 20.7187 7.51096C20.7147 8.11554 20.5321 8.70515 20.1944 9.20642C19.8567 9.70775 19.3778 10.0983 18.8191 10.3288C18.3098 10.5393 18.0299 11.0895 18.1596 11.6247C18.3028 12.2128 18.2679 12.8298 18.0593 13.398C18.0424 13.4439 18.01 13.4798 17.991 13.5242L6.03066 14.4126C4.03483 14.3967 2.18166 15.4472 1.17015 17.1676C0.15853 18.8886 0.141571 21.018 1.12625 22.7545C2.11043 24.4909 3.94662 25.5704 5.94243 25.5863L17.8549 26.4693C18.4241 27.1791 18.646 28.1069 18.4595 28.9978C18.3487 29.5376 18.6485 30.0778 19.1653 30.2693C19.732 30.4803 20.2243 30.8535 20.5795 31.3428C20.9351 31.8317 21.1386 32.4148 21.1646 33.0189C21.1885 33.5681 21.608 34.0185 22.1543 34.0804C22.7558 34.1482 23.3235 34.3916 23.7874 34.7807C24.2508 35.1698 24.589 35.6866 24.7601 36.2673C24.9158 36.7955 25.4325 37.1317 25.9777 37.0594C26.5783 36.9781 27.1894 37.0759 27.7346 37.3402C28.2794 37.6051 28.7338 38.0256 29.0406 38.5479C29.3205 39.0233 29.9051 39.2233 30.4173 39.0193C30.9316 38.8118 31.4933 38.7504 32.0405 38.8427C32.5872 38.9345 33.098 39.1764 33.5161 39.5411C33.8648 39.8354 34.3576 39.8872 34.7607 39.6733C35.246 39.4069 35.7947 39.2797 36.348 39.3041C36.9007 39.3286 37.4364 39.5047 37.8958 39.8129C38.0789 39.9351 38.2939 40 38.5139 39.9995C38.8271 39.9995 39.1264 39.8683 39.3384 39.6373C39.746 39.1889 40.2767 38.8716 40.8643 38.7245C41.4519 38.5778 42.07 38.6088 42.6401 38.8128C43.1594 38.9978 43.7355 38.7764 43.9979 38.292C44.2847 37.7593 44.7227 37.3233 45.2569 37.0395C45.7907 36.7551 46.3973 36.6354 46.9994 36.6953C47.5486 36.7501 48.0554 36.3955 48.1926 35.8607C48.3418 35.2741 48.661 34.7449 49.1109 34.3403C49.5604 33.9353 50.1201 33.6724 50.7192 33.5856C51.2644 33.5053 51.6699 33.0389 51.6734 32.4872C51.6764 31.8826 51.858 31.292 52.1962 30.7907C52.5344 30.2894 53.0133 29.8988 53.5729 29.6694C54.0827 29.4599 54.3636 28.9092 54.2344 28.3735C54.0902 27.7849 54.1242 27.1673 54.3302 26.5977C54.3446 26.5588 54.3671 26.5159 54.384 26.476L66.3689 25.5866C68.3647 25.6025 70.2179 24.552 71.2294 22.8316C72.241 21.1106 72.258 18.9812 71.2733 17.2447C70.2891 15.5083 68.4529 14.4288 66.4571 14.4129L66.4569 14.4128ZM2.67869 19.9997C2.68617 19.0983 3.05281 18.2378 3.69779 17.6082C4.34277 16.9787 5.21218 16.633 6.11356 16.6475L16.5556 15.8743C16.5721 16.001 16.6095 16.1242 16.6674 16.2385C16.9477 16.7747 17.0634 17.3813 17.0001 17.9829C16.9367 18.5844 16.6973 19.1536 16.3117 19.6194C15.9615 20.0439 15.9725 20.6605 16.3376 21.072C16.7437 21.5215 17.0066 22.0816 17.0929 22.6813C17.1218 22.9038 17.1263 23.1282 17.1053 23.3517C17.1053 23.3941 17.0999 23.4355 17.0954 23.4769H17.0949C17.0684 23.6909 17.0195 23.9014 16.9487 24.1049L16.9298 24.1528L6.03086 23.3517C5.14193 23.3517 4.28889 22.9986 3.66048 22.37C3.03207 21.7415 2.67879 20.8885 2.67879 19.9997H2.67869ZM52.0064 26.6534C51.9216 27.1004 51.8947 27.5563 51.9271 28.0103C50.6566 28.8059 49.7822 30.1018 49.5194 31.5779C48.0942 32.0433 46.9329 33.0899 46.3224 34.4587C44.8274 34.5639 43.4471 35.2977 42.5233 36.4775C41.0469 36.2171 39.5289 36.5957 38.3477 37.519C37.6718 37.2177 36.9401 37.0621 36.2003 37.0621C35.5773 37.0621 34.9592 37.1758 34.3766 37.3973C33.8519 37.0551 33.2687 36.8132 32.6561 36.682C31.9298 36.5279 31.1797 36.5279 30.4538 36.682C29.4896 35.5372 28.0869 34.8528 26.5909 34.7969C25.932 33.4511 24.7348 32.447 23.2948 32.0314C22.9805 30.5674 22.0627 29.3034 20.7672 28.5521C20.8171 27.0546 20.232 25.6061 19.156 24.5631C19.2099 24.3426 19.2488 24.1186 19.2732 23.8927C19.2947 23.754 19.3371 23.6178 19.3471 23.4781C19.4239 22.3618 19.1475 21.2499 18.5569 20.2991C18.9251 19.6586 19.1535 18.9472 19.2274 18.2119C19.2683 17.8408 19.2683 17.4657 19.2274 17.0946C19.2184 17.0008 19.184 16.9125 19.1695 16.8187C19.1341 16.5468 19.0772 16.278 18.9994 16.0151C20.0369 14.9356 20.5712 13.4686 20.4714 11.9746C21.7384 11.1764 22.6114 9.88195 22.8757 8.40792C24.3003 7.94401 25.4616 6.898 26.0727 5.5297C27.5676 5.42545 28.9479 4.69217 29.8717 3.51192C31.3473 3.76981 32.8632 3.39121 34.0449 2.47038C35.307 3.03205 36.74 3.07196 38.0316 2.58212C38.5549 2.92131 39.136 3.16176 39.7461 3.29145C40.4704 3.44459 41.2191 3.44459 41.9439 3.29145C42.9056 4.44324 44.3103 5.13364 45.8097 5.19098C46.4682 6.53731 47.6659 7.54141 49.1059 7.95541C49.4177 9.42191 50.337 10.6875 51.6355 11.4373C51.6131 12.0822 51.7093 12.7263 51.9194 13.3368L37.2365 12.2509C35.0876 11.956 32.9122 12.5666 31.2312 13.9374C29.5496 15.3086 28.5136 17.3159 28.3694 19.4803C28.2253 21.6452 28.987 23.7721 30.472 25.3534C31.9565 26.9353 34.0316 27.8286 36.201 27.8211C36.5267 27.8201 36.8519 27.7972 37.1742 27.7518L52.0064 26.6534ZM66.2858 23.3518L53.6146 24.2916L36.9434 25.5307C35.405 25.7496 33.8446 25.3176 32.6375 24.339C31.4309 23.3603 30.6856 21.9231 30.5818 20.3727C30.478 18.8218 31.0248 17.2985 32.0907 16.1676C33.1562 15.0368 34.6452 14.4008 36.199 14.4128C36.4699 14.4163 36.7398 14.4372 37.0081 14.4751L53.9436 15.7302H53.9795L66.3674 16.6475C67.5651 16.6625 68.6634 17.3149 69.2496 18.3594C69.8357 19.404 69.8197 20.6815 69.2082 21.7115C68.5966 22.7411 67.4822 23.3667 66.2845 23.3517L66.2858 23.3518Z" fill="#30D158"/>
<path d="M55.1952 18.8823H45.1389C44.5219 18.8823 44.0215 19.3827 44.0215 19.9997C44.0215 20.6167 44.5219 21.1171 45.1389 21.1171H55.1952C55.8123 21.1171 56.3126 20.6167 56.3126 19.9997C56.3126 19.3827 55.8123 18.8823 55.1952 18.8823Z" fill="#30D158"/>
<path d="M59.6648 17.7649C59.0477 17.7649 58.5474 18.2652 58.5474 18.8823V21.117C58.5474 21.734 59.0477 22.2344 59.6648 22.2344C60.2818 22.2344 60.7822 21.734 60.7822 21.117V18.8823C60.7822 18.586 60.6644 18.3016 60.4549 18.0921C60.2454 17.8826 59.9611 17.7649 59.6648 17.7649Z" fill="#30D158"/>
<path d="M5.23764 19.2065C4.9149 19.5258 4.81812 20.0092 4.99221 20.4282C5.1663 20.8472 5.57683 21.1195 6.03074 21.117C6.40294 21.115 6.74954 20.9275 6.95554 20.6172C7.16114 20.3074 7.19904 19.9149 7.05634 19.5712C6.91364 19.2275 6.60894 18.9776 6.24424 18.9042C5.87912 18.8309 5.50151 18.9441 5.23763 19.2065H5.23764Z" fill="#30D158"/>
<path d="M12.735 17.7649C12.118 17.7649 11.6177 18.2652 11.6177 18.8823V21.117C11.6177 21.734 12.118 22.2344 12.735 22.2344C13.3521 22.2344 13.8524 21.734 13.8524 21.117V18.8823C13.8524 18.586 13.7347 18.3016 13.5252 18.0921C13.3157 17.8826 13.0313 17.7649 12.735 17.7649Z" fill="#30D158"/>
<path d="M25.0262 19.9997C25.0296 17.0372 26.2079 14.1969 28.3024 12.1023C30.3969 10.0076 33.2374 8.82949 36.1998 8.82605C36.8169 8.82605 37.3172 8.32572 37.3172 7.70868C37.3172 7.09163 36.8169 6.59131 36.1998 6.59131C31.4096 6.59131 26.983 9.14683 24.5876 13.2955C22.1928 17.4442 22.1928 22.5552 24.5876 26.7039C26.983 30.8526 31.4096 33.4081 36.1998 33.4081C36.8169 33.4081 37.3172 32.9078 37.3172 32.2908C37.3172 31.6737 36.8169 31.1734 36.1998 31.1734C33.2374 31.1699 30.3971 29.9917 28.3024 27.8972C26.2078 25.8026 25.0296 22.9622 25.0262 19.9997Z" fill="#30D158"/>
<path d="M40.6693 9.94334C40.9656 9.94134 41.2495 9.82512 41.4624 9.6191C41.7802 9.29885 41.8745 8.81899 41.7009 8.40297C41.5273 7.98645 41.1202 7.71509 40.6693 7.71509C40.2184 7.71509 39.8113 7.98645 39.6377 8.40297C39.4641 8.81899 39.5584 9.29885 39.8762 9.6191C40.0892 9.82512 40.373 9.94133 40.6693 9.94334Z" fill="#30D158"/>
</g>
<defs>
<filter id="filter0_i_34_49" x="0.399414" y="0" width="71.6006" height="43.9995" filterUnits="userSpaceOnUse" color-interpolation-filters="sRGB">
<feFlood flood-opacity="0" result="BackgroundImageFix"/>
<feBlend mode="normal" in="SourceGraphic" in2="BackgroundImageFix" result="shape"/>
<feColorMatrix in="SourceAlpha" type="matrix" values="0 0 0 0 0 0 0 0 0 0 0 0 0 0 0 0 0 0 127 0" result="hardAlpha"/>
<feOffset dy="4"/>
<feGaussianBlur stdDeviation="2"/>
<feComposite in2="hardAlpha" operator="arithmetic" k2="-1" k3="1"/>
<feColorMatrix type="matrix" values="0 0 0 0 0 0 0 0 0 0 0 0 0 0 0 0 0 0 0.25 0"/>
<feBlend mode="normal" in2="shape" result="effect1_innerShadow_34_49"/>
</filter>
</defs>
</svg>
