<svg width="37" height="25" viewBox="0 0 37 25" fill="none" xmlns="http://www.w3.org/2000/svg">
<path d="M9.48377 8.33332C9.59765 8.86482 10.0913 9.24455 10.6228 9.24455C10.6988 9.24455 10.7745 9.24455 10.8505 9.20668C11.4959 9.05494 11.8757 8.44745 11.7618 7.83994L10.6988 2.82839C10.6227 2.52463 10.471 2.25902 10.2051 2.10698C9.93924 1.95524 9.63575 1.87923 9.33199 1.95524L4.28261 3.01826C3.63724 3.17001 3.25748 3.7775 3.37138 4.38501C3.52313 5.03039 4.13062 5.41014 4.73813 5.29625L7.01618 4.80262L0.182436 15.3949C-0.15919 15.9264 -0.00744441 16.6478 0.524062 16.9895C0.713943 17.1033 0.941693 17.1793 1.16944 17.1793C1.5492 17.1793 1.92867 16.9895 2.15647 16.6478L9.02817 6.0935L9.48377 8.33332Z" fill="white"/>
<path d="M35.8696 23.2156L21.3669 0.512429C20.9493 -0.17081 19.8484 -0.17081 19.4307 0.512429L4.89004 23.2156C4.66229 23.5573 4.66229 24.013 4.85217 24.3925C5.04205 24.7723 5.45968 25 5.8773 25H34.8827C35.3004 25 35.6801 24.7722 35.9079 24.3925C36.1356 24.0506 36.0975 23.5951 35.8697 23.2156H35.8696ZM20.3798 3.28389L24.8977 10.3454L23.1134 12.1295L21.2151 10.2313C20.7596 9.77576 20.0382 9.77576 19.5827 10.2313L17.6845 12.1295L15.9001 10.3452L20.3798 3.28389ZM8.00312 22.6841L14.6091 12.3576L16.849 14.5975C17.3045 15.053 18.0259 15.053 18.4814 14.5975L20.3797 12.6992L22.2779 14.5975C22.5057 14.8252 22.8094 14.9391 23.1132 14.9391C23.4169 14.9391 23.7207 14.8252 23.9484 14.5975L26.1883 12.3576L32.7943 22.7221H8.00299L8.00312 22.6841Z" fill="#0A84FF"/>
</svg>
