<svg width="37" height="25" viewBox="0 0 37 25" fill="none" xmlns="http://www.w3.org/2000/svg">
<path d="M36.5051 23.2614L32.2545 16.5767V17.1562C32.2545 18.0063 31.9068 18.7791 31.3271 19.32L33.4908 22.7589L3.08177 22.7592L8.76187 13.2538L10.2688 14.2198C10.7324 14.5289 11.2348 14.6448 11.7372 14.6448C12.2008 14.6448 12.6647 14.5289 13.0898 14.2971L14.6741 13.4085C14.8673 13.2926 15.0606 13.3311 15.215 13.447L15.9493 13.9879C16.7993 14.6063 17.9972 14.6833 18.9246 14.1424L20.586 13.1764C20.7404 13.099 20.8952 13.099 21.0496 13.1764L23.4066 14.3357C24.2182 14.7222 25.1842 14.7222 25.957 14.2583L26.2661 14.065V11.5147L24.9134 12.2877C24.7589 12.3651 24.6042 12.3651 24.4498 12.2877L22.0927 11.1285C21.2811 10.7034 20.3151 10.742 19.5038 11.2058L17.8036 12.1718C17.6103 12.2877 17.4171 12.2492 17.2627 12.1333L16.5284 11.5923C15.6783 10.974 14.5191 10.897 13.5531 11.4379L11.9302 12.3653C11.7757 12.4427 11.5825 12.4427 11.4278 12.3653L9.84346 11.3608L13.2051 5.71916L15.4462 8.50125C15.678 8.77186 15.9872 8.9263 16.3349 8.9263C16.6826 8.9263 17.0302 8.73305 17.2235 8.4627L21.0492 3.09145L23.2904 6.64634C23.3289 6.6078 23.3677 6.53044 23.4063 6.4919L24.8747 5.0235L22.054 0.502404C21.8607 0.193249 21.513 0 21.1266 0H21.088C20.7403 0 20.3926 0.193256 20.1606 0.463599L16.2966 5.9507L13.978 3.05269C13.7462 2.78208 13.3985 2.62764 13.012 2.62764C12.6643 2.66618 12.3166 2.85944 12.1234 3.16859L0.144942 23.3001C-0.0483139 23.6478 -0.0483139 24.0728 0.144942 24.4205C0.338198 24.7682 0.724433 25 1.11094 25H35.5779C36.003 25 36.3507 24.7682 36.5439 24.4205C36.776 24.0728 36.7372 23.6092 36.5054 23.2612L36.5051 23.2614Z" fill="#0A84FF"/>
<path d="M24.7585 9.38961C25.1835 9.81466 25.9178 9.81466 26.3428 9.38961L28.1975 7.53495V17.1563C28.1975 17.7746 28.6999 18.2768 29.3179 18.2768C29.9362 18.2768 30.4383 17.7744 30.4383 17.1563L30.4386 7.53495L32.2547 9.38961C32.4865 9.62141 32.7571 9.69876 33.0274 9.69876C33.298 9.69876 33.6069 9.58286 33.8001 9.38961C34.2252 8.96455 34.2252 8.23033 33.8001 7.80529L30.052 4.0572C29.8588 3.86395 29.5496 3.74805 29.2793 3.74805C29.0087 3.74805 28.6998 3.86395 28.5066 4.0572L24.7585 7.80529C24.3334 8.23035 24.3334 8.96456 24.7585 9.38961H24.7585Z" fill="white"/>
</svg>
