<svg width="35" height="27" viewBox="0 0 35 27" fill="none" xmlns="http://www.w3.org/2000/svg">
<path d="M7.55274 26.3831C8.9374 26.3831 10.2019 26.0426 11.3463 25.3617C12.4906 24.6808 13.4004 23.7711 14.0756 22.6324C14.7507 21.4938 15.0883 20.2264 15.0883 18.8303C15.0883 17.4457 14.7507 16.1811 14.0756 15.0368C13.4004 13.8924 12.4906 12.9827 11.3463 12.3075C10.2019 11.6323 8.9374 11.2948 7.55274 11.2948C6.15663 11.2948 4.88926 11.6323 3.75063 12.3075C2.612 12.9827 1.70223 13.8924 1.02134 15.0368C0.340446 16.1811 0 17.4457 0 18.8303C0 20.2264 0.340446 21.4938 1.02134 22.6324C1.70223 23.7711 2.612 24.6808 3.75063 25.3617C4.88926 26.0426 6.15663 26.3831 7.55274 26.3831ZM17.4915 20.8902C17.8691 20.8902 18.1924 20.7557 18.4613 20.4868C18.7302 20.2179 18.8647 19.8946 18.8647 19.5169V12.6337C18.8647 12.3018 18.7388 11.9985 18.487 11.7239L14.8995 7.72437C14.7851 7.59849 14.7593 7.46402 14.8222 7.32097C14.8852 7.17794 15.0025 7.10642 15.1741 7.10642H19.5685C19.8316 7.10642 20.0147 7.18367 20.1177 7.33816C20.2207 7.49265 20.2722 7.66716 20.2722 7.86168V11.2604C20.2722 11.6266 20.4038 11.9442 20.667 12.2131C20.9302 12.482 21.2506 12.6165 21.6283 12.6165H27.1384C27.516 12.6165 27.8364 12.482 28.0996 12.2131C28.3628 11.9442 28.4944 11.6266 28.4944 11.2604C28.4944 10.8828 28.3628 10.5595 28.0996 10.2906C27.8364 10.0217 27.516 9.88722 27.1384 9.88722H23.0015V5.06373C23.0015 4.28557 22.7354 3.63043 22.2033 3.09831C21.6712 2.56619 21.0218 2.30013 20.2551 2.30013H13.5434C12.8339 2.30013 12.1931 2.49467 11.6209 2.88376C11.0487 3.27283 10.6311 3.78779 10.3678 4.42863C10.0932 5.06947 10.0274 5.72747 10.1704 6.40263C10.3135 7.07781 10.6253 7.66715 11.1059 8.17065L16.1354 13.2173V19.5169C16.1354 19.8946 16.2699 20.2179 16.5388 20.4868C16.8077 20.7557 17.1253 20.8902 17.4915 20.8902ZM7.55274 24.2374C6.55716 24.2374 5.65025 23.9942 4.83202 23.5079C4.01381 23.0215 3.36153 22.3692 2.87518 21.551C2.38883 20.7328 2.14565 19.8259 2.14565 18.8303C2.14565 17.8462 2.38883 16.945 2.87518 16.1268C3.36153 15.3086 4.01381 14.6563 4.83202 14.17C5.65025 13.6836 6.55716 13.4404 7.55274 13.4404C8.53688 13.4404 9.43805 13.6836 10.2563 14.17C11.0745 14.6563 11.7268 15.3086 12.2131 16.1268C12.6995 16.945 12.9426 17.8462 12.9426 18.8303C12.9426 19.8259 12.6995 20.7328 12.2131 21.551C11.7268 22.3692 11.0745 23.0215 10.2563 23.5079C9.43805 23.9942 8.53688 24.2374 7.55274 24.2374ZM31.0349 14.8308C31.5843 15.3229 32.0219 15.9122 32.3479 16.5989C32.6742 17.2854 32.8373 18.0293 32.8373 18.8303C32.8373 19.8259 32.5941 20.7328 32.1078 21.551C31.6214 22.3692 30.9719 23.0215 30.1594 23.5079C29.3469 23.9942 28.4429 24.2374 27.4473 24.2374C26.4632 24.2374 25.562 23.9942 24.7438 23.5079C23.9256 23.0215 23.2733 22.3692 22.787 21.551C22.3006 20.7328 22.0574 19.8259 22.0574 18.8303C22.0574 18.0865 22.2005 17.377 22.4866 16.7018C22.6582 16.3013 22.6754 15.9608 22.5381 15.6805C22.4007 15.4001 22.2005 15.2142 21.9373 15.1226C21.697 15.0311 21.4423 15.0339 21.1734 15.1312C20.9045 15.2285 20.7014 15.4373 20.564 15.7577C20.358 16.2384 20.195 16.7362 20.0748 17.2511C19.9547 17.7661 19.8946 18.2925 19.8946 18.8303C19.8946 20.2264 20.235 21.4938 20.9159 22.6324C21.5968 23.7711 22.5094 24.6808 23.6538 25.3617C24.7981 26.0426 26.0627 26.3831 27.4473 26.3831C28.8434 26.3831 30.1108 26.0426 31.2494 25.3617C32.3882 24.6808 33.2979 23.7711 33.9788 22.6324C34.6596 21.4938 35 20.2264 35 18.8303C35 17.6974 34.7654 16.6446 34.2962 15.6719C33.827 14.6992 33.1976 13.8638 32.4081 13.1658C32.1334 12.9254 31.8502 12.8225 31.5584 12.8568C31.2666 12.8911 31.0292 13.0056 30.8461 13.2001C30.663 13.4061 30.5714 13.6578 30.5714 13.9554C30.5714 14.2529 30.7259 14.5447 31.0349 14.8308ZM27.3787 5.9735C28.1912 5.9735 28.8892 5.68455 29.4728 5.10666C30.0565 4.52876 30.3483 3.82212 30.3483 2.98673C30.3483 2.17424 30.0565 1.47333 29.4728 0.883997C28.8892 0.294666 28.1912 0 27.3787 0C26.5433 0 25.8338 0.294666 25.2502 0.883997C24.6666 1.47333 24.3748 2.17424 24.3748 2.98673C24.3748 3.82212 24.6666 4.52876 25.2502 5.10666C25.8338 5.68455 26.5433 5.9735 27.3787 5.9735Z" fill="white"/>
</svg>
